<svg width="100" height="68" viewBox="0 0 100 68" fill="none" xmlns="http://www.w3.org/2000/svg">
    <path
        d="M48.4662 28.3708C48.7666 27.8183 48.4427 26.618 47.8727 26.3527C47.3026 26.0875 47.6909 25.9981 47.2791 25.5218C46.797 24.9649 46.4423 24.874 45.7154 24.7524C44.9431 24.6234 44.5767 25.6332 44.1209 26.2692C43.1097 27.682 40.9833 27.4695 39.2847 27.106C39.6643 25.8207 40.0453 24.534 40.4249 23.2488C40.5583 22.7989 40.6916 22.3343 40.6359 21.8683C40.5846 21.4418 40.378 21.0505 40.164 20.6768C39.4371 19.4076 38.5842 18.2103 37.6214 17.1082C36.7406 16.1 35.7177 15.0712 35.5462 13.7434C35.448 12.9799 35.64 12.1577 35.3044 11.466C35.0201 10.8813 34.4221 10.5266 33.8521 10.2174C32.7207 9.60334 31.4926 9.01566 30.2088 9.11239C28.8678 9.21351 27.6221 10.128 27.1239 11.3766C27.0183 11.6433 26.9421 11.9262 26.7809 12.1636C26.4204 12.6956 25.7404 12.8758 25.1586 13.1484C23.7195 13.824 22.6936 15.3057 22.5661 16.8899C22.5236 17.4233 22.5588 18.0125 22.2232 18.4287C21.9887 18.7189 21.6106 18.8654 21.3702 19.1526C20.7034 19.947 21.4245 21.2425 20.954 22.1672C20.5965 22.8692 19.5193 23.0539 18.9477 22.5131C18.4553 20.4965 18.6444 18.3217 19.4783 16.4209C19.7699 15.7541 20.1451 15.1005 20.2022 14.3751C20.2433 13.8621 20.1216 13.3536 20 12.8539C19.679 11.5305 19.3581 10.2057 19.0371 8.8823C18.9683 8.59652 18.895 8.30196 18.7147 8.07041C18.5506 7.85791 18.7338 7.19549 18.5462 7.00351C17.916 6.35722 17.5965 4.74808 17.003 4.39196C15.5404 4.21463 15.0246 6.20041 14.6274 7.62049C13.7613 10.723 15.2048 14.2212 13.9474 17.1859C13.603 17.9993 13.0681 18.7262 12.7794 19.5601C12.2679 21.0402 12.583 22.6787 12.287 24.216C11.689 27.3302 8.73309 29.5256 7.89921 32.5856C7.71163 33.2729 7.63395 33.9998 7.32326 34.6402C7.06826 35.1634 6.66964 35.606 6.42344 36.1336C5.98964 37.0627 6.07611 38.137 6.11861 39.1614C6.20214 41.1471 6.08344 43.1417 5.76835 45.104C5.4899 46.8421 4.17973 50.692 3.82361 52.3539H23.6506C25.1938 51.1669 30.4066 48.8895 30.7745 47.7244C31.4867 45.4689 33.8946 43.7133 35.7602 42.3811C36.8578 41.5985 38.1108 39.5131 39.084 38.5825C41.0199 36.733 42.5221 35.6236 44.3496 33.6671C45.8077 32.1064 47.2146 30.462 48.9718 29.2471C49.1652 29.1138 48.3504 28.5774 48.4633 28.3722L48.4662 28.3708Z"
        fill="#DB9700" />
    <path
        d="M55.2897 16.8016C55.2267 16.1113 54.9849 15.3815 54.4104 14.9946C53.9209 14.6648 53.2922 14.6487 52.7016 14.6443C52.4217 14.6414 52.133 14.6414 51.8736 14.7498C51.6919 14.8275 51.535 14.955 51.387 15.0854C50.6763 15.7127 50.0431 16.4689 49.5918 17.3057C49.1682 18.0898 49.5317 19.3794 49.69 20.2338C49.7559 20.5929 49.835 20.9519 49.9772 21.2875C50.3055 22.0642 50.9825 22.6856 51.7856 22.9465C52.1843 23.0754 52.6532 23.1092 52.9918 22.8615C53.2057 22.7047 53.3332 22.4614 53.4549 22.2254C53.7084 21.733 53.9619 21.2392 54.2155 20.7467C54.5994 19.9993 54.9878 19.2417 55.1783 18.4224C55.3014 17.8934 55.3395 17.3438 55.2897 16.803V16.8016Z"
        fill="#DB9700" />
    <path
        d="M93.6055 49.6013C93.4311 49.3859 93.2436 49.1749 93.119 48.9272C92.8904 48.4714 92.8933 47.9395 92.8567 47.4309C92.6266 44.3196 90.6906 41.2376 91.6359 38.2641C92.1283 36.718 93.3784 35.1733 92.7702 33.6697C92.6339 33.3326 92.4097 33.0366 92.2543 32.7069C91.992 32.1485 91.9363 31.5198 91.8762 30.9057C91.6784 28.8775 90.9779 27.5263 90.6115 25.5214C90.4972 24.8957 90.7859 23.584 90.4283 23.0579C90.2011 22.7238 89.8875 22.4497 89.7014 22.0921C89.1679 21.0707 89.7996 19.7004 89.1885 18.7229C88.7342 17.9975 87.7361 17.7483 87.3023 17.0097C87.0254 16.5363 87.0356 15.956 86.9814 15.4094C86.8466 14.0494 86.2706 12.7788 85.702 11.5375C84.5941 9.11644 83.4861 6.6954 82.3782 4.2729C82.2273 3.94169 82.0514 3.58558 81.7246 3.4273C81.2483 3.19721 80.687 3.48738 80.2723 3.81419C79.2039 4.65687 78.3905 5.82049 77.9641 7.11307C77.6065 8.19902 77.7999 9.77445 78.9269 9.9679C79.2801 10.028 79.6831 9.93566 79.9704 10.1496C80.1433 10.2786 80.2283 10.4911 80.306 10.6919C80.6064 11.4715 80.9054 12.2512 81.2058 13.0308C81.6337 14.1446 82.0148 15.5442 81.1985 16.4147C80.2986 17.3761 78.5869 16.8426 77.7823 15.8007C76.9778 14.7587 76.7404 13.4001 76.2172 12.1911C75.4522 10.4222 74.0863 8.9948 72.7468 7.60695C72.4435 7.29333 72.1313 6.97238 71.7327 6.79213C71.4498 6.66316 71.1377 6.61333 70.8314 6.56497C68.6566 6.21324 66.492 5.79997 64.3406 5.32661C64.3245 5.73109 64.3084 6.13704 64.2923 6.54152C64.0314 6.63092 63.7456 6.64411 63.4789 6.57669C63.325 7.56006 63.1741 8.72368 63.391 9.70411C63.4554 9.99135 63.5375 10.2801 63.6298 10.5673C63.0744 10.8648 62.541 11.2649 61.9269 11.3909C62.1379 13.3327 62.094 15.3009 61.7965 17.231C61.7613 17.4626 61.7085 17.7161 61.521 17.8568C61.2704 18.0458 60.9128 17.9403 60.6036 17.9901C60.1405 18.0649 59.8048 18.5045 59.7008 18.9618C59.5967 19.419 59.6788 19.8968 59.7594 20.3584C59.3711 20.2133 58.9285 20.4918 58.7438 20.864C58.5606 21.2363 58.5679 21.6701 58.5811 22.0833C58.609 22.9949 58.6368 23.9064 58.6632 24.8165C58.6691 25.032 58.6823 25.2635 58.8156 25.432C58.9548 25.6079 59.1908 25.6709 59.3769 25.7984C60.0012 26.2234 59.8898 27.1613 59.7066 27.8941C59.6539 28.1051 59.5733 28.3484 59.3681 28.4188C59.2348 28.4642 59.0882 28.4202 58.9578 28.3704C58.1415 28.0568 57.4512 27.4896 56.7756 26.9327C54.6931 25.2122 52.6092 23.4932 50.5267 21.7726C50.2629 21.5557 49.9903 21.3242 49.8598 21.0091C49.7045 20.6369 49.7763 20.2148 49.7763 19.8103C49.7778 18.7302 49.2517 17.7029 48.5365 16.8939C47.8213 16.085 46.9244 15.4621 46.0363 14.8481C45.7974 14.6825 45.4618 14.5183 45.2391 14.7059C45.0764 14.8422 45.0793 15.0884 45.0061 15.2877C44.8214 15.7919 44.1619 15.9692 43.9186 16.4484C43.8014 16.68 43.797 16.9511 43.797 17.2105C43.7955 18.0004 43.7926 18.7888 43.7911 19.5788C43.7911 20.0345 43.7955 20.5152 44.0212 20.9109C44.2029 21.2275 44.5078 21.4532 44.7144 21.7536C44.9855 22.1449 45.0735 22.6314 45.2493 23.0755C45.9674 24.8913 48.1305 25.9479 48.5189 27.8619C48.5819 28.1755 48.598 28.5111 48.768 28.7822C48.9029 28.9976 49.1212 29.1442 49.3264 29.2937C49.9961 29.7802 50.5999 30.3562 51.1202 30.9995C51.5628 31.5462 51.8749 32.4651 52.4084 32.9003C52.8334 33.2476 53.6497 33.2198 54.1611 33.3678C54.976 33.6038 55.7629 33.9555 56.4371 34.4743C56.8709 34.8084 57.2519 35.2041 57.6315 35.5983C58.8713 36.888 60.1126 38.1791 61.3524 39.4688C61.5854 39.712 61.8273 39.9597 62.135 40.0975C62.3695 40.203 62.6304 40.2367 62.8707 40.3305C63.4804 40.5694 63.8746 41.1497 64.3553 41.5952C65.2287 42.4042 66.3498 42.7442 67.5457 42.8468C67.8711 43.4828 68.3503 44.0265 68.828 44.557C70.9398 46.9033 73.1205 49.1895 75.3657 51.4098C75.7086 51.7498 76.0648 52.0942 76.5088 52.2832C76.9543 52.4723 77.4511 52.4855 77.9348 52.4972C83.6928 52.6276 89.4523 52.6731 95.2117 52.6335C94.8747 51.5329 94.3236 50.4968 93.5997 49.6028L93.6055 49.6013Z"
        fill="#FFC629" />
    <path d="M15.9024 3.84863H14.7622V4.98881H15.9024V3.84863Z" fill="black" />
    <path d="M17.0411 3.84863H15.9009V4.98881H17.0411V3.84863Z" fill="black" />
    <path d="M18.1813 3.84863H17.0411V4.98881H18.1813V3.84863Z" fill="black" />
    <path d="M15.9024 4.98828H14.7622V6.12845H15.9024V4.98828Z" fill="black" />
    <path d="M18.1813 4.98828H17.0411V6.12845H18.1813V4.98828Z" fill="black" />
    <path d="M14.7622 6.12695H13.6221V7.26713H14.7622V6.12695Z" fill="black" />
    <path d="M15.9024 6.12695H14.7622V7.26713H15.9024V6.12695Z" fill="black" />
    <path d="M18.1812 6.12695H17.041V7.26713H18.1812V6.12695Z" fill="black" />
    <path d="M19.3214 6.12695H18.1813V7.26713H19.3214V6.12695Z" fill="black" />
    <path d="M14.7622 7.26758H13.6221V8.40775H14.7622V7.26758Z" fill="black" />
    <path d="M19.3214 7.26758H18.1813V8.40775H19.3214V7.26758Z" fill="black" />
    <path d="M14.7622 8.40723H13.6221V9.5474H14.7622V8.40723Z" fill="black" />
    <path d="M19.3214 8.40723H18.1813V9.5474H19.3214V8.40723Z" fill="black" />
    <path d="M20.4616 8.40723H19.3214V9.5474H20.4616V8.40723Z" fill="black" />
    <path d="M28.4428 8.40723H27.3026V9.5474H28.4428V8.40723Z" fill="black" />
    <path d="M29.5829 8.40723H28.4427V9.5474H29.5829V8.40723Z" fill="black" />
    <path d="M30.7232 8.40723H29.583V9.5474H30.7232V8.40723Z" fill="black" />
    <path d="M31.8633 8.40723H30.7231V9.5474H31.8633V8.40723Z" fill="black" />
    <path d="M33.0035 8.40723H31.8633V9.5474H33.0035V8.40723Z" fill="black" />
    <path d="M14.7622 9.54785H13.6221V10.688H14.7622V9.54785Z" fill="black" />
    <path d="M20.4616 9.54785H19.3214V10.688H20.4616V9.54785Z" fill="black" />
    <path d="M27.3026 9.54785H26.1625V10.688H27.3026V9.54785Z" fill="black" />
    <path d="M28.4428 9.54785H27.3026V10.688H28.4428V9.54785Z" fill="black" />
    <path d="M33.0035 9.54785H31.8633V10.688H33.0035V9.54785Z" fill="black" />
    <path d="M34.1422 9.54785H33.0021V10.688H34.1422V9.54785Z" fill="black" />
    <path d="M35.2824 9.54785H34.1422V10.688H35.2824V9.54785Z" fill="black" />
    <path d="M14.7622 10.6875H13.6221V11.8277H14.7622V10.6875Z" fill="black" />
    <path d="M20.4616 10.6875H19.3214V11.8277H20.4616V10.6875Z" fill="black" />
    <path d="M27.3026 10.6875H26.1625V11.8277H27.3026V10.6875Z" fill="black" />
    <path d="M35.2824 10.6875H34.1422V11.8277H35.2824V10.6875Z" fill="black" />
    <path d="M36.4225 10.6875H35.2823V11.8277H36.4225V10.6875Z" fill="black" />
    <path d="M14.7622 11.8281H13.6221V12.9683H14.7622V11.8281Z" fill="black" />
    <path d="M20.4616 11.8281H19.3214V12.9683H20.4616V11.8281Z" fill="black" />
    <path d="M25.0223 11.8281H23.8821V12.9683H25.0223V11.8281Z" fill="black" />
    <path d="M26.1625 11.8281H25.0223V12.9683H26.1625V11.8281Z" fill="black" />
    <path d="M27.3026 11.8281H26.1625V12.9683H27.3026V11.8281Z" fill="black" />
    <path d="M36.4225 11.8281H35.2823V12.9683H36.4225V11.8281Z" fill="black" />
    <path d="M14.7622 12.9678H13.6221V14.1079H14.7622V12.9678Z" fill="black" />
    <path d="M20.4616 12.9678H19.3214V14.1079H20.4616V12.9678Z" fill="black" />
    <path d="M23.8821 12.9678H22.7419V14.1079H23.8821V12.9678Z" fill="black" />
    <path d="M25.0223 12.9678H23.8821V14.1079H25.0223V12.9678Z" fill="black" />
    <path d="M36.4225 12.9678H35.2823V14.1079H36.4225V12.9678Z" fill="black" />
    <path d="M14.7622 14.1084H13.6221V15.2486H14.7622V14.1084Z" fill="black" />
    <path d="M20.4616 14.1084H19.3214V15.2486H20.4616V14.1084Z" fill="black" />
    <path d="M23.8821 14.1084H22.7419V15.2486H23.8821V14.1084Z" fill="black" />
    <path d="M31.8633 14.1084H30.7231V15.2486H31.8633V14.1084Z" fill="black" />
    <path d="M33.0035 14.1084H31.8633V15.2486H33.0035V14.1084Z" fill="black" />
    <path d="M34.1422 14.1084H33.0021V15.2486H34.1422V14.1084Z" fill="black" />
    <path d="M35.2824 14.1084H34.1422V15.2486H35.2824V14.1084Z" fill="black" />
    <path d="M36.4225 14.1084H35.2823V15.2486H36.4225V14.1084Z" fill="black" />
    <path d="M45.5439 14.1084H44.4037V15.2486H45.5439V14.1084Z" fill="black" />
    <path d="M46.6841 14.1084H45.5439V15.2486H46.6841V14.1084Z" fill="black" />
    <path d="M52.3835 14.1084H51.2433V15.2486H52.3835V14.1084Z" fill="black" />
    <path d="M53.5237 14.1084H52.3835V15.2486H53.5237V14.1084Z" fill="black" />
    <path d="M54.6639 14.1084H53.5237V15.2486H54.6639V14.1084Z" fill="black" />
    <path d="M14.7622 15.248H13.6221V16.3882H14.7622V15.248Z" fill="black" />
    <path d="M20.4616 15.248H19.3214V16.3882H20.4616V15.248Z" fill="black" />
    <path d="M22.742 15.248H21.6018V16.3882H22.742V15.248Z" fill="black" />
    <path d="M23.8821 15.248H22.7419V16.3882H23.8821V15.248Z" fill="black" />
    <path d="M29.5829 15.248H28.4427V16.3882H29.5829V15.248Z" fill="black" />
    <path d="M30.7232 15.248H29.583V16.3882H30.7232V15.248Z" fill="black" />
    <path d="M31.8633 15.248H30.7231V16.3882H31.8633V15.248Z" fill="black" />
    <path d="M36.4225 15.248H35.2823V16.3882H36.4225V15.248Z" fill="black" />
    <path d="M37.5627 15.248H36.4225V16.3882H37.5627V15.248Z" fill="black" />
    <path d="M44.4037 15.248H43.2635V16.3882H44.4037V15.248Z" fill="black" />
    <path d="M45.5439 15.248H44.4037V16.3882H45.5439V15.248Z" fill="black" />
    <path d="M47.8243 15.248H46.6841V16.3882H47.8243V15.248Z" fill="black" />
    <path d="M51.2448 15.248H50.1046V16.3882H51.2448V15.248Z" fill="black" />
    <path d="M55.804 15.248H54.6638V16.3882H55.804V15.248Z" fill="black" />
    <path d="M13.622 16.3887H12.4818V17.5288H13.622V16.3887Z" fill="black" />
    <path d="M14.7622 16.3887H13.6221V17.5288H14.7622V16.3887Z" fill="black" />
    <path d="M19.3214 16.3887H18.1813V17.5288H19.3214V16.3887Z" fill="black" />
    <path d="M20.4616 16.3887H19.3214V17.5288H20.4616V16.3887Z" fill="black" />
    <path d="M22.742 16.3887H21.6018V17.5288H22.742V16.3887Z" fill="black" />
    <path d="M28.4428 16.3887H27.3026V17.5288H28.4428V16.3887Z" fill="black" />
    <path d="M29.5829 16.3887H28.4427V17.5288H29.5829V16.3887Z" fill="black" />
    <path d="M37.5627 16.3887H36.4225V17.5288H37.5627V16.3887Z" fill="black" />
    <path d="M38.7029 16.3887H37.5627V17.5288H38.7029V16.3887Z" fill="black" />
    <path d="M44.4037 16.3887H43.2635V17.5288H44.4037V16.3887Z" fill="black" />
    <path d="M48.9644 16.3887H47.8242V17.5288H48.9644V16.3887Z" fill="black" />
    <path d="M50.1047 16.3887H48.9645V17.5288H50.1047V16.3887Z" fill="black" />
    <path d="M55.804 16.3887H54.6638V17.5288H55.804V16.3887Z" fill="black" />
    <path d="M13.622 17.5283H12.4818V18.6685H13.622V17.5283Z" fill="black" />
    <path d="M19.3214 17.5283H18.1813V18.6685H19.3214V17.5283Z" fill="black" />
    <path d="M22.742 17.5283H21.6018V18.6685H22.742V17.5283Z" fill="black" />
    <path d="M28.4428 17.5283H27.3026V18.6685H28.4428V17.5283Z" fill="black" />
    <path d="M38.7029 17.5283H37.5627V18.6685H38.7029V17.5283Z" fill="black" />
    <path d="M44.4037 17.5283H43.2635V18.6685H44.4037V17.5283Z" fill="black" />
    <path d="M48.9644 17.5283H47.8242V18.6685H48.9644V17.5283Z" fill="black" />
    <path d="M50.1047 17.5283H48.9645V18.6685H50.1047V17.5283Z" fill="black" />
    <path d="M55.804 17.5283H54.6638V18.6685H55.804V17.5283Z" fill="black" />
    <path d="M60.3647 17.5283H59.2245V18.6685H60.3647V17.5283Z" fill="black" />
    <path d="M13.622 18.6689H12.4818V19.8091H13.622V18.6689Z" fill="black" />
    <path d="M19.3214 18.6689H18.1813V19.8091H19.3214V18.6689Z" fill="black" />
    <path d="M21.6017 18.6689H20.4615V19.8091H21.6017V18.6689Z" fill="black" />
    <path d="M22.742 18.6689H21.6018V19.8091H22.742V18.6689Z" fill="black" />
    <path d="M27.3026 18.6689H26.1625V19.8091H27.3026V18.6689Z" fill="black" />
    <path d="M28.4428 18.6689H27.3026V19.8091H28.4428V18.6689Z" fill="black" />
    <path d="M33.0035 18.6689H31.8633V19.8091H33.0035V18.6689Z" fill="black" />
    <path d="M34.1422 18.6689H33.0021V19.8091H34.1422V18.6689Z" fill="black" />
    <path d="M35.2824 18.6689H34.1422V19.8091H35.2824V18.6689Z" fill="black" />
    <path d="M36.4225 18.6689H35.2823V19.8091H36.4225V18.6689Z" fill="black" />
    <path d="M37.5627 18.6689H36.4225V19.8091H37.5627V18.6689Z" fill="black" />
    <path d="M38.7029 18.6689H37.5627V19.8091H38.7029V18.6689Z" fill="black" />
    <path d="M39.8431 18.6689H38.7029V19.8091H39.8431V18.6689Z" fill="black" />
    <path d="M44.4037 18.6689H43.2635V19.8091H44.4037V18.6689Z" fill="black" />
    <path d="M50.1047 18.6689H48.9645V19.8091H50.1047V18.6689Z" fill="black" />
    <path d="M55.804 18.6689H54.6638V19.8091H55.804V18.6689Z" fill="black" />
    <path d="M60.3647 18.6689H59.2245V19.8091H60.3647V18.6689Z" fill="black" />
    <path d="M12.4818 19.8096H11.3417V20.9497H12.4818V19.8096Z" fill="black" />
    <path d="M13.622 19.8096H12.4818V20.9497H13.622V19.8096Z" fill="black" />
    <path d="M19.3214 19.8096H18.1813V20.9497H19.3214V19.8096Z" fill="black" />
    <path d="M21.6017 19.8096H20.4615V20.9497H21.6017V19.8096Z" fill="black" />
    <path d="M27.3026 19.8096H26.1625V20.9497H27.3026V19.8096Z" fill="black" />
    <path d="M31.8633 19.8096H30.7231V20.9497H31.8633V19.8096Z" fill="black" />
    <path d="M33.0035 19.8096H31.8633V20.9497H33.0035V19.8096Z" fill="black" />
    <path d="M39.8431 19.8096H38.7029V20.9497H39.8431V19.8096Z" fill="black" />
    <path d="M40.9832 19.8096H39.843V20.9497H40.9832V19.8096Z" fill="black" />
    <path d="M44.4037 19.8096H43.2635V20.9497H44.4037V19.8096Z" fill="black" />
    <path d="M50.1047 19.8096H48.9645V20.9497H50.1047V19.8096Z" fill="black" />
    <path d="M54.6639 19.8096H53.5237V20.9497H54.6639V19.8096Z" fill="black" />
    <path d="M59.2245 19.8096H58.0844V20.9497H59.2245V19.8096Z" fill="black" />
    <path d="M60.3647 19.8096H59.2245V20.9497H60.3647V19.8096Z" fill="black" />
    <path d="M12.4818 20.9492H11.3417V22.0894H12.4818V20.9492Z" fill="black" />
    <path d="M19.3214 20.9492H18.1813V22.0894H19.3214V20.9492Z" fill="black" />
    <path d="M21.6017 20.9492H20.4615V22.0894H21.6017V20.9492Z" fill="black" />
    <path d="M27.3026 20.9492H26.1625V22.0894H27.3026V20.9492Z" fill="black" />
    <path d="M31.8633 20.9492H30.7231V22.0894H31.8633V20.9492Z" fill="black" />
    <path d="M40.9832 20.9492H39.843V22.0894H40.9832V20.9492Z" fill="black" />
    <path d="M44.4037 20.9492H43.2635V22.0894H44.4037V20.9492Z" fill="black" />
    <path d="M45.5439 20.9492H44.4037V22.0894H45.5439V20.9492Z" fill="black" />
    <path d="M50.1047 20.9492H48.9645V22.0894H50.1047V20.9492Z" fill="black" />
    <path d="M51.2448 20.9492H50.1046V22.0894H51.2448V20.9492Z" fill="black" />
    <path d="M54.6639 20.9492H53.5237V22.0894H54.6639V20.9492Z" fill="black" />
    <path d="M59.2245 20.9492H58.0844V22.0894H59.2245V20.9492Z" fill="black" />
    <path d="M12.4818 22.0898H11.3417V23.23H12.4818V22.0898Z" fill="black" />
    <path d="M19.3214 22.0898H18.1813V23.23H19.3214V22.0898Z" fill="black" />
    <path d="M20.4616 22.0898H19.3214V23.23H20.4616V22.0898Z" fill="black" />
    <path d="M21.6017 22.0898H20.4615V23.23H21.6017V22.0898Z" fill="black" />
    <path d="M27.3026 22.0898H26.1625V23.23H27.3026V22.0898Z" fill="black" />
    <path d="M30.7232 22.0898H29.583V23.23H30.7232V22.0898Z" fill="black" />
    <path d="M31.8633 22.0898H30.7231V23.23H31.8633V22.0898Z" fill="black" />
    <path d="M40.9832 22.0898H39.843V23.23H40.9832V22.0898Z" fill="black" />
    <path d="M45.5439 22.0898H44.4037V23.23H45.5439V22.0898Z" fill="black" />
    <path d="M51.2448 22.0898H50.1046V23.23H51.2448V22.0898Z" fill="black" />
    <path d="M52.3835 22.0898H51.2433V23.23H52.3835V22.0898Z" fill="black" />
    <path d="M53.5237 22.0898H52.3835V23.23H53.5237V22.0898Z" fill="black" />
    <path d="M54.6639 22.0898H53.5237V23.23H54.6639V22.0898Z" fill="black" />
    <path d="M59.2245 22.0898H58.0844V23.23H59.2245V22.0898Z" fill="black" />
    <path d="M12.4818 23.2285H11.3417V24.3687H12.4818V23.2285Z" fill="black" />
    <path d="M20.4616 23.2285H19.3214V24.3687H20.4616V23.2285Z" fill="black" />
    <path d="M21.6017 23.2285H20.4615V24.3687H21.6017V23.2285Z" fill="black" />
    <path d="M22.742 23.2285H21.6018V24.3687H22.742V23.2285Z" fill="black" />
    <path d="M25.0223 23.2285H23.8821V24.3687H25.0223V23.2285Z" fill="black" />
    <path d="M26.1625 23.2285H25.0223V24.3687H26.1625V23.2285Z" fill="black" />
    <path d="M27.3026 23.2285H26.1625V24.3687H27.3026V23.2285Z" fill="black" />
    <path d="M29.5829 23.2285H28.4427V24.3687H29.5829V23.2285Z" fill="black" />
    <path d="M30.7232 23.2285H29.583V24.3687H30.7232V23.2285Z" fill="black" />
    <path d="M40.9832 23.2285H39.843V24.3687H40.9832V23.2285Z" fill="black" />
    <path d="M45.5439 23.2285H44.4037V24.3687H45.5439V23.2285Z" fill="black" />
    <path d="M46.6841 23.2285H45.5439V24.3687H46.6841V23.2285Z" fill="black" />
    <path d="M52.3835 23.2285H51.2433V24.3687H52.3835V23.2285Z" fill="black" />
    <path d="M53.5237 23.2285H52.3835V24.3687H53.5237V23.2285Z" fill="black" />
    <path d="M54.6639 23.2285H53.5237V24.3687H54.6639V23.2285Z" fill="black" />
    <path d="M59.2245 23.2285H58.0844V24.3687H59.2245V23.2285Z" fill="black" />
    <path d="M12.4818 24.3682H11.3417V25.5083H12.4818V24.3682Z" fill="black" />
    <path d="M20.4616 24.3682H19.3214V25.5083H20.4616V24.3682Z" fill="black" />
    <path d="M22.742 24.3682H21.6018V25.5083H22.742V24.3682Z" fill="black" />
    <path d="M23.8821 24.3682H22.7419V25.5083H23.8821V24.3682Z" fill="black" />
    <path d="M25.0223 24.3682H23.8821V25.5083H25.0223V24.3682Z" fill="black" />
    <path d="M29.5829 24.3682H28.4427V25.5083H29.5829V24.3682Z" fill="black" />
    <path d="M39.8431 24.3682H38.7029V25.5083H39.8431V24.3682Z" fill="black" />
    <path d="M40.9832 24.3682H39.843V25.5083H40.9832V24.3682Z" fill="black" />
    <path d="M45.5439 24.3682H44.4037V25.5083H45.5439V24.3682Z" fill="black" />
    <path d="M46.6841 24.3682H45.5439V25.5083H46.6841V24.3682Z" fill="black" />
    <path d="M47.8243 24.3682H46.6841V25.5083H47.8243V24.3682Z" fill="black" />
    <path d="M54.6639 24.3682H53.5237V25.5083H54.6639V24.3682Z" fill="black" />
    <path d="M55.804 24.3682H54.6638V25.5083H55.804V24.3682Z" fill="black" />
    <path d="M59.2245 24.3682H58.0844V25.5083H59.2245V24.3682Z" fill="black" />
    <path d="M11.3417 25.5088H10.2015V26.649H11.3417V25.5088Z" fill="black" />
    <path d="M12.4818 25.5088H11.3417V26.649H12.4818V25.5088Z" fill="black" />
    <path d="M20.4616 25.5088H19.3214V26.649H20.4616V25.5088Z" fill="black" />
    <path d="M25.0223 25.5088H23.8821V26.649H25.0223V25.5088Z" fill="black" />
    <path d="M28.4428 25.5088H27.3026V26.649H28.4428V25.5088Z" fill="black" />
    <path d="M29.5829 25.5088H28.4427V26.649H29.5829V25.5088Z" fill="black" />
    <path d="M34.1422 25.5088H33.0021V26.649H34.1422V25.5088Z" fill="black" />
    <path d="M35.2824 25.5088H34.1422V26.649H35.2824V25.5088Z" fill="black" />
    <path d="M36.4225 25.5088H35.2823V26.649H36.4225V25.5088Z" fill="black" />
    <path d="M37.5627 25.5088H36.4225V26.649H37.5627V25.5088Z" fill="black" />
    <path d="M39.8431 25.5088H38.7029V26.649H39.8431V25.5088Z" fill="black" />
    <path d="M43.2636 25.5088H42.1234V26.649H43.2636V25.5088Z" fill="black" />
    <path d="M44.4037 25.5088H43.2635V26.649H44.4037V25.5088Z" fill="black" />
    <path d="M45.544 25.5088H44.4038V26.649H45.544V25.5088Z" fill="black" />
    <path d="M47.8243 25.5088H46.6841V26.649H47.8243V25.5088Z" fill="black" />
    <path d="M48.9644 25.5088H47.8242V26.649H48.9644V25.5088Z" fill="black" />
    <path d="M55.804 25.5088H54.6638V26.649H55.804V25.5088Z" fill="black" />
    <path d="M56.9442 25.5088H55.8041V26.649H56.9442V25.5088Z" fill="black" />
    <path d="M59.2245 25.5088H58.0844V26.649H59.2245V25.5088Z" fill="black" />
    <path d="M60.3647 25.5088H59.2245V26.649H60.3647V25.5088Z" fill="black" />
    <path d="M11.3417 26.6484H10.2015V27.7886H11.3417V26.6484Z" fill="black" />
    <path d="M19.3214 26.6484H18.1813V27.7886H19.3214V26.6484Z" fill="black" />
    <path d="M20.4616 26.6484H19.3214V27.7886H20.4616V26.6484Z" fill="black" />
    <path d="M23.8821 26.6484H22.7419V27.7886H23.8821V26.6484Z" fill="black" />
    <path d="M25.0223 26.6484H23.8821V27.7886H25.0223V26.6484Z" fill="black" />
    <path d="M28.4428 26.6484H27.3026V27.7886H28.4428V26.6484Z" fill="black" />
    <path d="M33.0035 26.6484H31.8633V27.7886H33.0035V26.6484Z" fill="black" />
    <path d="M34.1422 26.6484H33.0021V27.7886H34.1422V26.6484Z" fill="black" />
    <path d="M39.8431 26.6484H38.7029V27.7886H39.8431V26.6484Z" fill="black" />
    <path d="M40.9832 26.6484H39.843V27.7886H40.9832V26.6484Z" fill="black" />
    <path d="M42.1234 26.6484H40.9833V27.7886H42.1234V26.6484Z" fill="black" />
    <path d="M43.2636 26.6484H42.1234V27.7886H43.2636V26.6484Z" fill="black" />
    <path d="M44.4037 26.6484H43.2635V27.7886H44.4037V26.6484Z" fill="black" />
    <path d="M48.9644 26.6484H47.8242V27.7886H48.9644V26.6484Z" fill="black" />
    <path d="M56.9441 26.6484H55.804V27.7886H56.9441V26.6484Z" fill="black" />
    <path d="M58.0844 26.6484H56.9442V27.7886H58.0844V26.6484Z" fill="black" />
    <path d="M60.3647 26.6484H59.2245V27.7886H60.3647V26.6484Z" fill="black" />
    <path d="M10.2015 27.7891H9.06128V28.9292H10.2015V27.7891Z" fill="black" />
    <path d="M11.3417 27.7891H10.2015V28.9292H11.3417V27.7891Z" fill="black" />
    <path d="M19.3214 27.7891H18.1813V28.9292H19.3214V27.7891Z" fill="black" />
    <path d="M23.8821 27.7891H22.7419V28.9292H23.8821V27.7891Z" fill="black" />
    <path d="M27.3026 27.7891H26.1625V28.9292H27.3026V27.7891Z" fill="black" />
    <path d="M28.4428 27.7891H27.3026V28.9292H28.4428V27.7891Z" fill="black" />
    <path d="M33.0035 27.7891H31.8633V28.9292H33.0035V27.7891Z" fill="black" />
    <path d="M39.8431 27.7891H38.7029V28.9292H39.8431V27.7891Z" fill="black" />
    <path d="M48.9644 27.7891H47.8242V28.9292H48.9644V27.7891Z" fill="black" />
    <path d="M58.0844 27.7891H56.9442V28.9292H58.0844V27.7891Z" fill="black" />
    <path d="M59.2245 27.7891H58.0844V28.9292H59.2245V27.7891Z" fill="black" />
    <path d="M60.3647 27.7891H59.2245V28.9292H60.3647V27.7891Z" fill="black" />
    <path d="M9.06131 28.9287H7.92114V30.0689H9.06131V28.9287Z" fill="black" />
    <path d="M10.2015 28.9287H9.06128V30.0689H10.2015V28.9287Z" fill="black" />
    <path d="M19.3214 28.9287H18.1813V30.0689H19.3214V28.9287Z" fill="black" />
    <path d="M23.8821 28.9287H22.7419V30.0689H23.8821V28.9287Z" fill="black" />
    <path d="M27.3026 28.9287H26.1625V30.0689H27.3026V28.9287Z" fill="black" />
    <path d="M33.0035 28.9287H31.8633V30.0689H33.0035V28.9287Z" fill="black" />
    <path d="M39.8431 28.9287H38.7029V30.0689H39.8431V28.9287Z" fill="black" />
    <path d="M47.8243 28.9287H46.6841V30.0689H47.8243V28.9287Z" fill="black" />
    <path d="M48.9644 28.9287H47.8242V30.0689H48.9644V28.9287Z" fill="black" />
    <path d="M50.1047 28.9287H48.9645V30.0689H50.1047V28.9287Z" fill="black" />
    <path d="M51.2448 28.9287H50.1046V30.0689H51.2448V28.9287Z" fill="black" />
    <path d="M60.3647 28.9287H59.2245V30.0689H60.3647V28.9287Z" fill="black" />
    <path d="M9.06131 30.0693H7.92114V31.2095H9.06131V30.0693Z" fill="black" />
    <path d="M23.8821 30.0693H22.7419V31.2095H23.8821V30.0693Z" fill="black" />
    <path d="M26.1625 30.0693H25.0223V31.2095H26.1625V30.0693Z" fill="black" />
    <path d="M27.3026 30.0693H26.1625V31.2095H27.3026V30.0693Z" fill="black" />
    <path d="M31.8633 30.0693H30.7231V31.2095H31.8633V30.0693Z" fill="black" />
    <path d="M33.0035 30.0693H31.8633V31.2095H33.0035V30.0693Z" fill="black" />
    <path d="M47.8243 30.0693H46.6841V31.2095H47.8243V30.0693Z" fill="black" />
    <path d="M51.2448 30.0693H50.1046V31.2095H51.2448V30.0693Z" fill="black" />
    <path d="M7.92118 31.209H6.78101V32.3492H7.92118V31.209Z" fill="black" />
    <path d="M9.06131 31.209H7.92114V32.3492H9.06131V31.209Z" fill="black" />
    <path d="M23.8821 31.209H22.7419V32.3492H23.8821V31.209Z" fill="black" />
    <path d="M25.0223 31.209H23.8821V32.3492H25.0223V31.209Z" fill="black" />
    <path d="M26.1625 31.209H25.0223V32.3492H26.1625V31.209Z" fill="black" />
    <path d="M30.7232 31.209H29.583V32.3492H30.7232V31.209Z" fill="black" />
    <path d="M31.8633 31.209H30.7231V32.3492H31.8633V31.209Z" fill="black" />
    <path d="M46.6841 31.209H45.5439V32.3492H46.6841V31.209Z" fill="black" />
    <path d="M47.8243 31.209H46.6841V32.3492H47.8243V31.209Z" fill="black" />
    <path d="M51.2448 31.209H50.1046V32.3492H51.2448V31.209Z" fill="black" />
    <path d="M52.3835 31.209H51.2433V32.3492H52.3835V31.209Z" fill="black" />
    <path d="M7.92118 32.3496H6.78101V33.4898H7.92118V32.3496Z" fill="black" />
    <path d="M26.1625 32.3496H25.0223V33.4898H26.1625V32.3496Z" fill="black" />
    <path d="M29.5829 32.3496H28.4427V33.4898H29.5829V32.3496Z" fill="black" />
    <path d="M30.7232 32.3496H29.583V33.4898H30.7232V32.3496Z" fill="black" />
    <path d="M45.5439 32.3496H44.4037V33.4898H45.5439V32.3496Z" fill="black" />
    <path d="M46.6841 32.3496H45.5439V33.4898H46.6841V32.3496Z" fill="black" />
    <path d="M52.3835 32.3496H51.2433V33.4898H52.3835V32.3496Z" fill="black" />
    <path d="M53.5237 32.3496H52.3835V33.4898H53.5237V32.3496Z" fill="black" />
    <path d="M54.6639 32.3496H53.5237V33.4898H54.6639V32.3496Z" fill="black" />
    <path d="M7.92118 33.4893H6.78101V34.6294H7.92118V33.4893Z" fill="black" />
    <path d="M26.1625 33.4893H25.0223V34.6294H26.1625V33.4893Z" fill="black" />
    <path d="M27.3026 33.4893H26.1625V34.6294H27.3026V33.4893Z" fill="black" />
    <path d="M28.4428 33.4893H27.3026V34.6294H28.4428V33.4893Z" fill="black" />
    <path d="M29.5829 33.4893H28.4427V34.6294H29.5829V33.4893Z" fill="black" />
    <path d="M44.4037 33.4893H43.2635V34.6294H44.4037V33.4893Z" fill="black" />
    <path d="M45.544 33.4893H44.4038V34.6294H45.544V33.4893Z" fill="black" />
    <path d="M54.6639 33.4893H53.5237V34.6294H54.6639V33.4893Z" fill="black" />
    <path d="M55.804 33.4893H54.6638V34.6294H55.804V33.4893Z" fill="black" />
    <path d="M56.9442 33.4893H55.8041V34.6294H56.9442V33.4893Z" fill="black" />
    <path d="M6.78104 34.6299H5.64087V35.7701H6.78104V34.6299Z" fill="black" />
    <path d="M7.92118 34.6299H6.78101V35.7701H7.92118V34.6299Z" fill="black" />
    <path d="M42.1234 34.6299H40.9833V35.7701H42.1234V34.6299Z" fill="black" />
    <path d="M43.2636 34.6299H42.1234V35.7701H43.2636V34.6299Z" fill="black" />
    <path d="M44.4037 34.6299H43.2635V35.7701H44.4037V34.6299Z" fill="black" />
    <path d="M56.9441 34.6299H55.804V35.7701H56.9441V34.6299Z" fill="black" />
    <path d="M58.0844 34.6299H56.9442V35.7701H58.0844V34.6299Z" fill="black" />
    <path d="M6.78104 35.7705H5.64087V36.9107H6.78104V35.7705Z" fill="black" />
    <path d="M40.9832 35.7705H39.843V36.9107H40.9832V35.7705Z" fill="black" />
    <path d="M42.1234 35.7705H40.9833V36.9107H42.1234V35.7705Z" fill="black" />
    <path d="M58.0844 35.7705H56.9442V36.9107H58.0844V35.7705Z" fill="black" />
    <path d="M59.2245 35.7705H58.0844V36.9107H59.2245V35.7705Z" fill="black" />
    <path d="M6.78104 36.9102H5.64087V38.0503H6.78104V36.9102Z" fill="black" />
    <path d="M22.742 36.9102H21.6018V38.0503H22.742V36.9102Z" fill="black" />
    <path d="M23.8821 36.9102H22.7419V38.0503H23.8821V36.9102Z" fill="black" />
    <path d="M25.0223 36.9102H23.8821V38.0503H25.0223V36.9102Z" fill="black" />
    <path d="M26.1625 36.9102H25.0223V38.0503H26.1625V36.9102Z" fill="black" />
    <path d="M27.3026 36.9102H26.1625V38.0503H27.3026V36.9102Z" fill="black" />
    <path d="M39.8431 36.9102H38.7029V38.0503H39.8431V36.9102Z" fill="black" />
    <path d="M40.9832 36.9102H39.843V38.0503H40.9832V36.9102Z" fill="black" />
    <path d="M59.2245 36.9102H58.0844V38.0503H59.2245V36.9102Z" fill="black" />
    <path d="M60.3647 36.9102H59.2245V38.0503H60.3647V36.9102Z" fill="black" />
    <path d="M6.78104 38.0508H5.64087V39.1909H6.78104V38.0508Z" fill="black" />
    <path d="M20.4616 38.0508H19.3214V39.1909H20.4616V38.0508Z" fill="black" />
    <path d="M21.6017 38.0508H20.4615V39.1909H21.6017V38.0508Z" fill="black" />
    <path d="M22.742 38.0508H21.6018V39.1909H22.742V38.0508Z" fill="black" />
    <path d="M38.7029 38.0508H37.5627V39.1909H38.7029V38.0508Z" fill="black" />
    <path d="M39.8431 38.0508H38.7029V39.1909H39.8431V38.0508Z" fill="black" />
    <path d="M60.3647 38.0508H59.2245V39.1909H60.3647V38.0508Z" fill="black" />
    <path d="M6.78104 39.1904H5.64087V40.3306H6.78104V39.1904Z" fill="black" />
    <path d="M20.4616 39.1904H19.3214V40.3306H20.4616V39.1904Z" fill="black" />
    <path d="M38.7029 39.1904H37.5627V40.3306H38.7029V39.1904Z" fill="black" />
    <path d="M6.78104 40.3311H5.64087V41.4712H6.78104V40.3311Z" fill="black" />
    <path d="M18.1812 40.3311H17.041V41.4712H18.1812V40.3311Z" fill="black" />
    <path d="M19.3214 40.3311H18.1813V41.4712H19.3214V40.3311Z" fill="black" />
    <path d="M20.4616 40.3311H19.3214V41.4712H20.4616V40.3311Z" fill="black" />
    <path d="M37.5627 40.3311H36.4225V41.4712H37.5627V40.3311Z" fill="black" />
    <path d="M38.7029 40.3311H37.5627V41.4712H38.7029V40.3311Z" fill="black" />
    <path d="M6.78104 41.4697H5.64087V42.6099H6.78104V41.4697Z" fill="black" />
    <path d="M17.0411 41.4697H15.9009V42.6099H17.0411V41.4697Z" fill="black" />
    <path d="M18.1813 41.4697H17.0411V42.6099H18.1813V41.4697Z" fill="black" />
    <path d="M36.4225 41.4697H35.2823V42.6099H36.4225V41.4697Z" fill="black" />
    <path d="M37.5627 41.4697H36.4225V42.6099H37.5627V41.4697Z" fill="black" />
    <path d="M6.78104 42.6094H5.64087V43.7496H6.78104V42.6094Z" fill="black" />
    <path d="M17.0411 42.6094H15.9009V43.7496H17.0411V42.6094Z" fill="black" />
    <path d="M34.1422 42.6094H33.0021V43.7496H34.1422V42.6094Z" fill="black" />
    <path d="M35.2824 42.6094H34.1422V43.7496H35.2824V42.6094Z" fill="black" />
    <path d="M36.4225 42.6094H35.2823V43.7496H36.4225V42.6094Z" fill="black" />
    <path d="M6.78104 43.75H5.64087V44.8902H6.78104V43.75Z" fill="black" />
    <path d="M15.9024 43.75H14.7622V44.8902H15.9024V43.75Z" fill="black" />
    <path d="M17.0411 43.75H15.9009V44.8902H17.0411V43.75Z" fill="black" />
    <path d="M33.0035 43.75H31.8633V44.8902H33.0035V43.75Z" fill="black" />
    <path d="M34.1422 43.75H33.0021V44.8902H34.1422V43.75Z" fill="black" />
    <path d="M5.64078 44.8896H4.50061V46.0298H5.64078V44.8896Z" fill="black" />
    <path d="M6.78104 44.8896H5.64087V46.0298H6.78104V44.8896Z" fill="black" />
    <path d="M14.7622 44.8896H13.6221V46.0298H14.7622V44.8896Z" fill="black" />
    <path d="M15.9024 44.8896H14.7622V46.0298H15.9024V44.8896Z" fill="black" />
    <path d="M31.8633 44.8896H30.7231V46.0298H31.8633V44.8896Z" fill="black" />
    <path d="M33.0035 44.8896H31.8633V46.0298H33.0035V44.8896Z" fill="black" />
    <path d="M5.64078 46.0303H4.50061V47.1704H5.64078V46.0303Z" fill="black" />
    <path d="M14.7622 46.0303H13.6221V47.1704H14.7622V46.0303Z" fill="black" />
    <path d="M31.8633 46.0303H30.7231V47.1704H31.8633V46.0303Z" fill="black" />
    <path d="M5.64078 47.1699H4.50061V48.3101H5.64078V47.1699Z" fill="black" />
    <path d="M14.7622 47.1699H13.6221V48.3101H14.7622V47.1699Z" fill="black" />
    <path d="M30.7232 47.1699H29.583V48.3101H30.7232V47.1699Z" fill="black" />
    <path d="M31.8633 47.1699H30.7231V48.3101H31.8633V47.1699Z" fill="black" />
    <path d="M5.64078 48.3105H4.50061V49.4507H5.64078V48.3105Z" fill="black" />
    <path d="M14.7622 48.3105H13.6221V49.4507H14.7622V48.3105Z" fill="black" />
    <path d="M29.5829 48.3105H28.4427V49.4507H29.5829V48.3105Z" fill="black" />
    <path d="M30.7232 48.3105H29.583V49.4507H30.7232V48.3105Z" fill="black" />
    <path d="M4.50065 49.4512H3.36047V50.5913H4.50065V49.4512Z" fill="black" />
    <path d="M5.64078 49.4512H4.50061V50.5913H5.64078V49.4512Z" fill="black" />
    <path d="M27.3026 49.4512H26.1625V50.5913H27.3026V49.4512Z" fill="black" />
    <path d="M28.4428 49.4512H27.3026V50.5913H28.4428V49.4512Z" fill="black" />
    <path d="M29.5829 49.4512H28.4427V50.5913H29.5829V49.4512Z" fill="black" />
    <path d="M4.50065 50.5908H3.36047V51.731H4.50065V50.5908Z" fill="black" />
    <path d="M25.0223 50.5908H23.8821V51.731H25.0223V50.5908Z" fill="black" />
    <path d="M26.1625 50.5908H25.0223V51.731H26.1625V50.5908Z" fill="black" />
    <path d="M27.3026 50.5908H26.1625V51.731H27.3026V50.5908Z" fill="black" />
    <path d="M4.50065 51.7314H3.36047V52.8716H4.50065V51.7314Z" fill="black" />
    <path d="M23.8821 51.7314H22.7419V52.8716H23.8821V51.7314Z" fill="black" />
    <path d="M25.0223 51.7314H23.8821V52.8716H25.0223V51.7314Z" fill="black" />
    <path d="M80.8877 2.68164H79.7476V3.82181H80.8877V2.68164Z" fill="black" />
    <path d="M82.028 2.68164H80.8878V3.82181H82.028V2.68164Z" fill="black" />
    <path d="M83.1681 2.68164H82.028V3.82181H83.1681V2.68164Z" fill="black" />
    <path d="M79.7476 3.82227H78.6074V4.96244H79.7476V3.82227Z" fill="black" />
    <path d="M80.8877 3.82227H79.7476V4.96244H80.8877V3.82227Z" fill="black" />
    <path d="M83.1681 3.82227H82.028V4.96244H83.1681V3.82227Z" fill="black" />
    <path d="M64.9268 4.96191H63.7866V6.10209H64.9268V4.96191Z" fill="black" />
    <path d="M66.067 4.96191H64.9269V6.10209H66.067V4.96191Z" fill="black" />
    <path d="M67.2072 4.96191H66.067V6.10209H67.2072V4.96191Z" fill="black" />
    <path d="M68.3459 4.96191H67.2057V6.10209H68.3459V4.96191Z" fill="black" />
    <path d="M78.6075 4.96191H77.4673V6.10209H78.6075V4.96191Z" fill="black" />
    <path d="M79.7476 4.96191H78.6074V6.10209H79.7476V4.96191Z" fill="black" />
    <path d="M83.1681 4.96191H82.028V6.10209H83.1681V4.96191Z" fill="black" />
    <path d="M63.7867 6.10254H62.6465V7.24271H63.7867V6.10254Z" fill="black" />
    <path d="M64.9268 6.10254H63.7866V7.24271H64.9268V6.10254Z" fill="black" />
    <path d="M68.3459 6.10254H67.2057V7.24271H68.3459V6.10254Z" fill="black" />
    <path d="M69.4861 6.10254H68.3459V7.24271H69.4861V6.10254Z" fill="black" />
    <path d="M70.6263 6.10254H69.4861V7.24271H70.6263V6.10254Z" fill="black" />
    <path d="M71.7664 6.10254H70.6262V7.24271H71.7664V6.10254Z" fill="black" />
    <path d="M72.9065 6.10254H71.7664V7.24271H72.9065V6.10254Z" fill="black" />
    <path d="M78.6075 6.10254H77.4673V7.24271H78.6075V6.10254Z" fill="black" />
    <path d="M83.1681 6.10254H82.028V7.24271H83.1681V6.10254Z" fill="black" />
    <path d="M84.3083 6.10254H83.1681V7.24271H84.3083V6.10254Z" fill="black" />
    <path d="M63.7867 7.24219H62.6465V8.38236H63.7867V7.24219Z" fill="black" />
    <path d="M69.4861 7.24219H68.3459V8.38236H69.4861V7.24219Z" fill="black" />
    <path d="M72.9065 7.24219H71.7664V8.38236H72.9065V7.24219Z" fill="black" />
    <path d="M74.0468 7.24219H72.9066V8.38236H74.0468V7.24219Z" fill="black" />
    <path d="M78.6075 7.24219H77.4673V8.38236H78.6075V7.24219Z" fill="black" />
    <path d="M84.3083 7.24219H83.1681V8.38236H84.3083V7.24219Z" fill="black" />
    <path d="M63.7867 8.38281H62.6465V9.52298H63.7867V8.38281Z" fill="black" />
    <path d="M64.9268 8.38281H63.7866V9.52298H64.9268V8.38281Z" fill="black" />
    <path d="M69.4861 8.38281H68.3459V9.52298H69.4861V8.38281Z" fill="black" />
    <path d="M70.6263 8.38281H69.4861V9.52298H70.6263V8.38281Z" fill="black" />
    <path d="M74.0468 8.38281H72.9066V9.52298H74.0468V8.38281Z" fill="black" />
    <path d="M75.1869 8.38281H74.0468V9.52298H75.1869V8.38281Z" fill="black" />
    <path d="M78.6075 8.38281H77.4673V9.52298H78.6075V8.38281Z" fill="black" />
    <path d="M84.3083 8.38281H83.1681V9.52298H84.3083V8.38281Z" fill="black" />
    <path d="M85.4471 8.38281H84.3069V9.52298H85.4471V8.38281Z" fill="black" />
    <path d="M63.7867 9.52246H62.6465V10.6626H63.7867V9.52246Z" fill="black" />
    <path d="M64.9268 9.52246H63.7866V10.6626H64.9268V9.52246Z" fill="black" />
    <path d="M66.067 9.52246H64.9269V10.6626H66.067V9.52246Z" fill="black" />
    <path d="M70.6263 9.52246H69.4861V10.6626H70.6263V9.52246Z" fill="black" />
    <path d="M71.7664 9.52246H70.6262V10.6626H71.7664V9.52246Z" fill="black" />
    <path d="M75.1869 9.52246H74.0468V10.6626H75.1869V9.52246Z" fill="black" />
    <path d="M76.3271 9.52246H75.1869V10.6626H76.3271V9.52246Z" fill="black" />
    <path d="M78.6075 9.52246H77.4673V10.6626H78.6075V9.52246Z" fill="black" />
    <path d="M79.7476 9.52246H78.6074V10.6626H79.7476V9.52246Z" fill="black" />
    <path d="M80.8877 9.52246H79.7476V10.6626H80.8877V9.52246Z" fill="black" />
    <path d="M85.4471 9.52246H84.3069V10.6626H85.4471V9.52246Z" fill="black" />
    <path d="M86.5872 9.52246H85.447V10.6626H86.5872V9.52246Z" fill="black" />
    <path d="M62.6465 10.6631H61.5063V11.8033H62.6465V10.6631Z" fill="black" />
    <path d="M63.7867 10.6631H62.6465V11.8033H63.7867V10.6631Z" fill="black" />
    <path d="M66.067 10.6631H64.9269V11.8033H66.067V10.6631Z" fill="black" />
    <path d="M72.9065 10.6631H71.7664V11.8033H72.9065V10.6631Z" fill="black" />
    <path d="M76.3271 10.6631H75.1869V11.8033H76.3271V10.6631Z" fill="black" />
    <path d="M80.8877 10.6631H79.7476V11.8033H80.8877V10.6631Z" fill="black" />
    <path d="M86.5872 10.6631H85.447V11.8033H86.5872V10.6631Z" fill="black" />
    <path d="M62.6465 11.8027H61.5063V12.9429H62.6465V11.8027Z" fill="black" />
    <path d="M66.067 11.8027H64.9269V12.9429H66.067V11.8027Z" fill="black" />
    <path d="M72.9065 11.8027H71.7664V12.9429H72.9065V11.8027Z" fill="black" />
    <path d="M74.0468 11.8027H72.9066V12.9429H74.0468V11.8027Z" fill="black" />
    <path d="M76.3271 11.8027H75.1869V12.9429H76.3271V11.8027Z" fill="black" />
    <path d="M77.4673 11.8027H76.3271V12.9429H77.4673V11.8027Z" fill="black" />
    <path d="M80.8877 11.8027H79.7476V12.9429H80.8877V11.8027Z" fill="black" />
    <path d="M82.028 11.8027H80.8878V12.9429H82.028V11.8027Z" fill="black" />
    <path d="M86.5872 11.8027H85.447V12.9429H86.5872V11.8027Z" fill="black" />
    <path d="M62.6465 12.9434H61.5063V14.0835H62.6465V12.9434Z" fill="black" />
    <path d="M66.067 12.9434H64.9269V14.0835H66.067V12.9434Z" fill="black" />
    <path d="M74.0468 12.9434H72.9066V14.0835H74.0468V12.9434Z" fill="black" />
    <path d="M75.1869 12.9434H74.0468V14.0835H75.1869V12.9434Z" fill="black" />
    <path d="M77.4673 12.9434H76.3271V14.0835H77.4673V12.9434Z" fill="black" />
    <path d="M82.028 12.9434H80.8878V14.0835H82.028V12.9434Z" fill="black" />
    <path d="M86.5872 12.9434H85.447V14.0835H86.5872V12.9434Z" fill="black" />
    <path d="M87.7273 12.9434H86.5872V14.0835H87.7273V12.9434Z" fill="black" />
    <path d="M62.6465 14.083H61.5063V15.2232H62.6465V14.083Z" fill="black" />
    <path d="M66.067 14.083H64.9269V15.2232H66.067V14.083Z" fill="black" />
    <path d="M67.2072 14.083H66.067V15.2232H67.2072V14.083Z" fill="black" />
    <path d="M76.3271 14.083H75.1869V15.2232H76.3271V14.083Z" fill="black" />
    <path d="M77.4673 14.083H76.3271V15.2232H77.4673V14.083Z" fill="black" />
    <path d="M82.028 14.083H80.8878V15.2232H82.028V14.083Z" fill="black" />
    <path d="M87.7273 14.083H86.5872V15.2232H87.7273V14.083Z" fill="black" />
    <path d="M62.6465 15.2236H61.5063V16.3638H62.6465V15.2236Z" fill="black" />
    <path d="M67.2072 15.2236H66.067V16.3638H67.2072V15.2236Z" fill="black" />
    <path d="M77.4673 15.2236H76.3271V16.3638H77.4673V15.2236Z" fill="black" />
    <path d="M78.6075 15.2236H77.4673V16.3638H78.6075V15.2236Z" fill="black" />
    <path d="M82.028 15.2236H80.8878V16.3638H82.028V15.2236Z" fill="black" />
    <path d="M87.7273 15.2236H86.5872V16.3638H87.7273V15.2236Z" fill="black" />
    <path d="M62.6465 16.3623H61.5063V17.5025H62.6465V16.3623Z" fill="black" />
    <path d="M67.2072 16.3623H66.067V17.5025H67.2072V16.3623Z" fill="black" />
    <path d="M79.7476 16.3623H78.6074V17.5025H79.7476V16.3623Z" fill="black" />
    <path d="M80.8877 16.3623H79.7476V17.5025H80.8877V16.3623Z" fill="black" />
    <path d="M82.028 16.3623H80.8878V17.5025H82.028V16.3623Z" fill="black" />
    <path d="M83.1681 16.3623H82.028V17.5025H83.1681V16.3623Z" fill="black" />
    <path d="M87.7273 16.3623H86.5872V17.5025H87.7273V16.3623Z" fill="black" />
    <path d="M61.5064 17.502H60.3662V18.6421H61.5064V17.502Z" fill="black" />
    <path d="M62.6465 17.502H61.5063V18.6421H62.6465V17.502Z" fill="black" />
    <path d="M63.7867 17.502H62.6465V18.6421H63.7867V17.502Z" fill="black" />
    <path d="M67.2072 17.502H66.067V18.6421H67.2072V17.502Z" fill="black" />
    <path d="M83.1681 17.502H82.028V18.6421H83.1681V17.502Z" fill="black" />
    <path d="M84.3083 17.502H83.1681V18.6421H84.3083V17.502Z" fill="black" />
    <path d="M88.8675 17.502H87.7273V18.6421H88.8675V17.502Z" fill="black" />
    <path d="M90.0077 17.502H88.8676V18.6421H90.0077V17.502Z" fill="black" />
    <path d="M63.7867 18.6426H62.6465V19.7828H63.7867V18.6426Z" fill="black" />
    <path d="M84.3083 18.6426H83.1681V19.7828H84.3083V18.6426Z" fill="black" />
    <path d="M85.4471 18.6426H84.3069V19.7828H85.4471V18.6426Z" fill="black" />
    <path d="M90.0077 18.6426H88.8676V19.7828H90.0077V18.6426Z" fill="black" />
    <path d="M63.7867 19.7832H62.6465V20.9234H63.7867V19.7832Z" fill="black" />
    <path d="M85.4471 19.7832H84.3069V20.9234H85.4471V19.7832Z" fill="black" />
    <path d="M86.5872 19.7832H85.447V20.9234H86.5872V19.7832Z" fill="black" />
    <path d="M90.0077 19.7832H88.8676V20.9234H90.0077V19.7832Z" fill="black" />
    <path d="M63.7867 20.9229H62.6465V22.063H63.7867V20.9229Z" fill="black" />
    <path d="M90.0077 20.9229H88.8676V22.063H90.0077V20.9229Z" fill="black" />
    <path d="M63.7867 22.0635H62.6465V23.2036H63.7867V22.0635Z" fill="black" />
    <path d="M90.0077 22.0635H88.8676V23.2036H90.0077V22.0635Z" fill="black" />
    <path d="M91.1479 22.0635H90.0077V23.2036H91.1479V22.0635Z" fill="black" />
    <path d="M63.7867 23.2031H62.6465V24.3433H63.7867V23.2031Z" fill="black" />
    <path d="M91.1479 23.2031H90.0077V24.3433H91.1479V23.2031Z" fill="black" />
    <path d="M91.1479 24.3438H90.0077V25.4839H91.1479V24.3438Z" fill="black" />
    <path d="M91.1479 25.4834H90.0077V26.6236H91.1479V25.4834Z" fill="black" />
    <path d="M91.1479 26.624H90.0077V27.7642H91.1479V26.624Z" fill="black" />
    <path d="M92.2881 26.624H91.1479V27.7642H92.2881V26.624Z" fill="black" />
    <path d="M92.2881 27.7637H91.1479V28.9038H92.2881V27.7637Z" fill="black" />
    <path d="M92.2881 28.9043H91.1479V30.0445H92.2881V28.9043Z" fill="black" />
    <path d="M92.2881 30.0439H91.1479V31.1841H92.2881V30.0439Z" fill="black" />
    <path d="M92.2881 31.1846H91.1479V32.3247H92.2881V31.1846Z" fill="black" />
    <path d="M92.2881 32.3242H91.1479V33.4644H92.2881V32.3242Z" fill="black" />
    <path d="M93.4283 32.3242H92.2881V33.4644H93.4283V32.3242Z" fill="black" />
    <path d="M93.4283 33.4648H92.2881V34.605H93.4283V33.4648Z" fill="black" />
    <path d="M93.4283 34.6035H92.2881V35.7437H93.4283V34.6035Z" fill="black" />
    <path d="M92.2881 35.7441H91.1479V36.8843H92.2881V35.7441Z" fill="black" />
    <path d="M93.4283 35.7441H92.2881V36.8843H93.4283V35.7441Z" fill="black" />
    <path d="M92.2881 36.8838H91.1479V38.024H92.2881V36.8838Z" fill="black" />
    <path d="M61.5064 38.0244H60.3662V39.1646H61.5064V38.0244Z" fill="black" />
    <path d="M92.2881 38.0244H91.1479V39.1646H92.2881V38.0244Z" fill="black" />
    <path d="M61.5064 39.1641H60.3662V40.3042H61.5064V39.1641Z" fill="black" />
    <path d="M62.6465 39.1641H61.5063V40.3042H62.6465V39.1641Z" fill="black" />
    <path d="M92.2881 39.1641H91.1479V40.3042H92.2881V39.1641Z" fill="black" />
    <path d="M62.6465 40.3047H61.5063V41.4449H62.6465V40.3047Z" fill="black" />
    <path d="M63.7867 40.3047H62.6465V41.4449H63.7867V40.3047Z" fill="black" />
    <path d="M64.9268 40.3047H63.7866V41.4449H64.9268V40.3047Z" fill="black" />
    <path d="M92.2881 40.3047H91.1479V41.4449H92.2881V40.3047Z" fill="black" />
    <path d="M64.9268 41.4443H63.7866V42.5845H64.9268V41.4443Z" fill="black" />
    <path d="M66.067 41.4443H64.9269V42.5845H66.067V41.4443Z" fill="black" />
    <path d="M92.2881 41.4443H91.1479V42.5845H92.2881V41.4443Z" fill="black" />
    <path d="M66.067 42.585H64.9269V43.7251H66.067V42.585Z" fill="black" />
    <path d="M67.2072 42.585H66.067V43.7251H67.2072V42.585Z" fill="black" />
    <path d="M68.3459 42.585H67.2057V43.7251H68.3459V42.585Z" fill="black" />
    <path d="M92.2881 42.585H91.1479V43.7251H92.2881V42.585Z" fill="black" />
    <path d="M68.3459 43.7246H67.2057V44.8648H68.3459V43.7246Z" fill="black" />
    <path d="M69.4861 43.7246H68.3459V44.8648H69.4861V43.7246Z" fill="black" />
    <path d="M92.2881 43.7246H91.1479V44.8648H92.2881V43.7246Z" fill="black" />
    <path d="M69.4861 44.8652H68.3459V46.0054H69.4861V44.8652Z" fill="black" />
    <path d="M70.6263 44.8652H69.4861V46.0054H70.6263V44.8652Z" fill="black" />
    <path d="M92.2881 44.8652H91.1479V46.0054H92.2881V44.8652Z" fill="black" />
    <path d="M93.4283 44.8652H92.2881V46.0054H93.4283V44.8652Z" fill="black" />
    <path d="M70.6263 46.0049H69.4861V47.1451H70.6263V46.0049Z" fill="black" />
    <path d="M71.7664 46.0049H70.6262V47.1451H71.7664V46.0049Z" fill="black" />
    <path d="M93.4283 46.0049H92.2881V47.1451H93.4283V46.0049Z" fill="black" />
    <path d="M71.7664 47.1455H70.6262V48.2857H71.7664V47.1455Z" fill="black" />
    <path d="M72.9065 47.1455H71.7664V48.2857H72.9065V47.1455Z" fill="black" />
    <path d="M93.4283 47.1455H92.2881V48.2857H93.4283V47.1455Z" fill="black" />
    <path d="M72.9065 48.2852H71.7664V49.4253H72.9065V48.2852Z" fill="black" />
    <path d="M74.0468 48.2852H72.9066V49.4253H74.0468V48.2852Z" fill="black" />
    <path d="M93.4283 48.2852H92.2881V49.4253H93.4283V48.2852Z" fill="black" />
    <path d="M94.5684 48.2852H93.4282V49.4253H94.5684V48.2852Z" fill="black" />
    <path d="M74.0468 49.4258H72.9066V50.5659H74.0468V49.4258Z" fill="black" />
    <path d="M75.1869 49.4258H74.0468V50.5659H75.1869V49.4258Z" fill="black" />
    <path d="M94.5684 49.4258H93.4282V50.5659H94.5684V49.4258Z" fill="black" />
    <path d="M75.1869 50.5664H74.0468V51.7066H75.1869V50.5664Z" fill="black" />
    <path d="M76.3271 50.5664H75.1869V51.7066H76.3271V50.5664Z" fill="black" />
    <path d="M94.5684 50.5664H93.4282V51.7066H94.5684V50.5664Z" fill="black" />
    <path d="M95.7085 50.5664H94.5684V51.7066H95.7085V50.5664Z" fill="black" />
    <path d="M76.3271 51.7061H75.1869V52.8462H76.3271V51.7061Z" fill="black" />
    <path d="M77.4673 51.7061H76.3271V52.8462H77.4673V51.7061Z" fill="black" />
    <path d="M95.7085 51.7061H94.5684V52.8462H95.7085V51.7061Z" fill="black" />
</svg>